<mxfile host="app.diagrams.net" modified="2021-04-18T11:24:28.276Z" agent="5.0 (Macintosh; Intel Mac OS X 10_15_7) AppleWebKit/537.36 (KHTML, like Gecko) Chrome/90.0.4430.72 Safari/537.36" etag="6CnP85OdzL7jGWTXlQTa" version="14.6.1" type="github" pages="3">
  <diagram id="MeZqxcu2szGoPqcZ1yLN" name="架构图">
    <mxGraphModel dx="1079" dy="1343" grid="1" gridSize="10" guides="1" tooltips="1" connect="1" arrows="1" fold="1" page="1" pageScale="1" pageWidth="827" pageHeight="1169" math="0" shadow="0">
      <root>
        <mxCell id="0" />
        <mxCell id="1" parent="0" />
        <mxCell id="0gWfFFMA--hlFrFCOmyr-12" value="硬件层" style="text;html=1;resizable=0;autosize=1;align=center;verticalAlign=middle;points=[];fillColor=none;strokeColor=none;rounded=0;" parent="1" vertex="1">
          <mxGeometry x="9" y="910" width="50" height="20" as="geometry" />
        </mxCell>
        <mxCell id="0gWfFFMA--hlFrFCOmyr-13" value="云服务" style="rounded=1;whiteSpace=wrap;html=1;fillColor=#cce5ff;strokeColor=#36393d;" parent="1" vertex="1">
          <mxGeometry x="119" y="890" width="630" height="60" as="geometry" />
        </mxCell>
        <mxCell id="0gWfFFMA--hlFrFCOmyr-14" value="" style="endArrow=none;dashed=1;html=1;" parent="1" edge="1">
          <mxGeometry width="50" height="50" relative="1" as="geometry">
            <mxPoint x="3" y="870" as="sourcePoint" />
            <mxPoint x="803" y="870" as="targetPoint" />
          </mxGeometry>
        </mxCell>
        <mxCell id="0gWfFFMA--hlFrFCOmyr-15" value="" style="shape=doubleArrow;direction=south;whiteSpace=wrap;html=1;fillColor=#d5e8d4;strokeColor=#82b366;" parent="1" vertex="1">
          <mxGeometry x="79" y="730" width="20" height="120" as="geometry" />
        </mxCell>
        <mxCell id="0gWfFFMA--hlFrFCOmyr-16" value="数据层" style="text;html=1;resizable=0;autosize=1;align=center;verticalAlign=middle;points=[];fillColor=none;strokeColor=none;rounded=0;" parent="1" vertex="1">
          <mxGeometry x="9" y="780" width="50" height="20" as="geometry" />
        </mxCell>
        <mxCell id="0gWfFFMA--hlFrFCOmyr-17" value="" style="rounded=1;whiteSpace=wrap;html=1;fillColor=#d5e8d4;strokeColor=#82b366;" parent="1" vertex="1">
          <mxGeometry x="119" y="730" width="630" height="120" as="geometry" />
        </mxCell>
        <mxCell id="0gWfFFMA--hlFrFCOmyr-18" value="" style="endArrow=none;dashed=1;html=1;" parent="1" edge="1">
          <mxGeometry width="50" height="50" relative="1" as="geometry">
            <mxPoint x="9" y="720" as="sourcePoint" />
            <mxPoint x="809" y="720" as="targetPoint" />
          </mxGeometry>
        </mxCell>
        <mxCell id="0gWfFFMA--hlFrFCOmyr-19" value="" style="shape=doubleArrow;direction=south;whiteSpace=wrap;html=1;fillColor=#cdeb8b;strokeColor=#36393d;" parent="1" vertex="1">
          <mxGeometry x="85" y="580" width="20" height="120" as="geometry" />
        </mxCell>
        <mxCell id="0gWfFFMA--hlFrFCOmyr-20" value="中间组件层" style="text;html=1;resizable=0;autosize=1;align=center;verticalAlign=middle;points=[];fillColor=none;strokeColor=none;rounded=0;" parent="1" vertex="1">
          <mxGeometry y="630" width="80" height="20" as="geometry" />
        </mxCell>
        <mxCell id="0gWfFFMA--hlFrFCOmyr-21" value="" style="rounded=1;whiteSpace=wrap;html=1;fillColor=#cdeb8b;strokeColor=#36393d;" parent="1" vertex="1">
          <mxGeometry x="119" y="580" width="630" height="120" as="geometry" />
        </mxCell>
        <mxCell id="0gWfFFMA--hlFrFCOmyr-26" value="Zookeeper" style="shape=card;whiteSpace=wrap;html=1;strokeColor=#000000;fillColor=#AEC776;" parent="1" vertex="1">
          <mxGeometry x="139" y="610" width="100" height="75" as="geometry" />
        </mxCell>
        <mxCell id="0gWfFFMA--hlFrFCOmyr-39" value="SSO" style="shape=card;whiteSpace=wrap;html=1;strokeColor=#000000;fillColor=#AEC776;" parent="1" vertex="1">
          <mxGeometry x="479" y="610" width="100" height="75" as="geometry" />
        </mxCell>
        <mxCell id="0gWfFFMA--hlFrFCOmyr-40" value="IM" style="shape=card;whiteSpace=wrap;html=1;strokeColor=#000000;fillColor=#AEC776;" parent="1" vertex="1">
          <mxGeometry x="363" y="610" width="100" height="75" as="geometry" />
        </mxCell>
        <mxCell id="0gWfFFMA--hlFrFCOmyr-41" value="MQ" style="shape=card;whiteSpace=wrap;html=1;strokeColor=#000000;fillColor=#AEC776;" parent="1" vertex="1">
          <mxGeometry x="249" y="610" width="100" height="75" as="geometry" />
        </mxCell>
        <mxCell id="0gWfFFMA--hlFrFCOmyr-42" value="" style="shape=card;whiteSpace=wrap;html=1;strokeColor=#000000;fillColor=#AEC776;" parent="1" vertex="1">
          <mxGeometry x="599" y="610" width="100" height="75" as="geometry" />
        </mxCell>
        <mxCell id="0gWfFFMA--hlFrFCOmyr-43" value="" style="shape=card;whiteSpace=wrap;html=1;strokeColor=#000000;fillColor=#AEC776;" parent="1" vertex="1">
          <mxGeometry x="609" y="620" width="100" height="75" as="geometry" />
        </mxCell>
        <mxCell id="0gWfFFMA--hlFrFCOmyr-44" value="&lt;span style=&quot;white-space: normal&quot;&gt;Redis&lt;/span&gt;" style="shape=card;whiteSpace=wrap;html=1;strokeColor=#000000;fillColor=#AEC776;" parent="1" vertex="1">
          <mxGeometry x="619" y="630" width="100" height="75" as="geometry" />
        </mxCell>
        <mxCell id="0gWfFFMA--hlFrFCOmyr-45" value="&lt;span style=&quot;white-space: normal&quot;&gt;Oracle&lt;/span&gt;&lt;br style=&quot;white-space: normal&quot;&gt;&lt;span style=&quot;white-space: normal&quot;&gt;HBase&lt;/span&gt;&lt;br style=&quot;white-space: normal&quot;&gt;&lt;span style=&quot;white-space: normal&quot;&gt;ElasticSearch&lt;/span&gt;" style="shape=cylinder;whiteSpace=wrap;html=1;boundedLbl=1;backgroundOutline=1;strokeColor=#82b366;fillColor=#9FAD9E;fontColor=#FFFFFF;" parent="1" vertex="1">
          <mxGeometry x="339" y="750" width="150" height="90" as="geometry" />
        </mxCell>
        <mxCell id="0gWfFFMA--hlFrFCOmyr-57" value="" style="endArrow=none;dashed=1;html=1;" parent="1" edge="1">
          <mxGeometry width="50" height="50" relative="1" as="geometry">
            <mxPoint x="9" y="570" as="sourcePoint" />
            <mxPoint x="809" y="570" as="targetPoint" />
          </mxGeometry>
        </mxCell>
        <mxCell id="0gWfFFMA--hlFrFCOmyr-58" value="" style="shape=doubleArrow;direction=south;whiteSpace=wrap;html=1;fillColor=#dae8fc;strokeColor=#6c8ebf;" parent="1" vertex="1">
          <mxGeometry x="85" y="430" width="20" height="120" as="geometry" />
        </mxCell>
        <mxCell id="0gWfFFMA--hlFrFCOmyr-59" value="微服务层" style="text;html=1;resizable=0;autosize=1;align=center;verticalAlign=middle;points=[];fillColor=none;strokeColor=none;rounded=0;" parent="1" vertex="1">
          <mxGeometry x="10" y="480" width="60" height="20" as="geometry" />
        </mxCell>
        <mxCell id="0gWfFFMA--hlFrFCOmyr-60" value="" style="rounded=1;whiteSpace=wrap;html=1;fillColor=#1ba1e2;strokeColor=#006EAF;fontColor=#ffffff;" parent="1" vertex="1">
          <mxGeometry x="119" y="430" width="630" height="120" as="geometry" />
        </mxCell>
        <mxCell id="0gWfFFMA--hlFrFCOmyr-61" value="地面" style="shape=card;whiteSpace=wrap;html=1;strokeColor=#006EAF;fillColor=#157DB0;fontColor=#ffffff;" parent="1" vertex="1">
          <mxGeometry x="139" y="460" width="100" height="75" as="geometry" />
        </mxCell>
        <mxCell id="0gWfFFMA--hlFrFCOmyr-62" value="测井" style="shape=card;whiteSpace=wrap;html=1;strokeColor=#82b366;fillColor=#157DB0;fontColor=#FFFFFF;" parent="1" vertex="1">
          <mxGeometry x="479" y="460" width="100" height="75" as="geometry" />
        </mxCell>
        <mxCell id="0gWfFFMA--hlFrFCOmyr-63" value="钻井" style="shape=card;whiteSpace=wrap;html=1;strokeColor=#6c8ebf;fillColor=#157DB0;fontColor=#FFFFFF;" parent="1" vertex="1">
          <mxGeometry x="363" y="460" width="100" height="75" as="geometry" />
        </mxCell>
        <mxCell id="0gWfFFMA--hlFrFCOmyr-64" value="物探" style="shape=card;whiteSpace=wrap;html=1;strokeColor=#6c8ebf;fillColor=#157DB0;fontColor=#FFFFFF;" parent="1" vertex="1">
          <mxGeometry x="249" y="460" width="100" height="75" as="geometry" />
        </mxCell>
        <mxCell id="0gWfFFMA--hlFrFCOmyr-65" value="" style="shape=card;whiteSpace=wrap;html=1;strokeColor=#6C8EBF;fillColor=#157DB0;" parent="1" vertex="1">
          <mxGeometry x="599" y="460" width="100" height="75" as="geometry" />
        </mxCell>
        <mxCell id="0gWfFFMA--hlFrFCOmyr-66" value="" style="shape=card;whiteSpace=wrap;html=1;strokeColor=#6C8EBF;fillColor=#157DB0;" parent="1" vertex="1">
          <mxGeometry x="609" y="470" width="100" height="75" as="geometry" />
        </mxCell>
        <mxCell id="0gWfFFMA--hlFrFCOmyr-67" value="系统组件" style="shape=card;whiteSpace=wrap;html=1;strokeColor=#6c8ebf;fillColor=#157DB0;fontColor=#FFFFFF;" parent="1" vertex="1">
          <mxGeometry x="619" y="480" width="100" height="75" as="geometry" />
        </mxCell>
        <mxCell id="0gWfFFMA--hlFrFCOmyr-68" value="RCP内网远程条用" style="rounded=1;whiteSpace=wrap;html=1;rotation=90;fillColor=#f8cecc;strokeColor=#b85450;" parent="1" vertex="1">
          <mxGeometry x="739" y="460" width="120" height="60" as="geometry" />
        </mxCell>
        <mxCell id="0gWfFFMA--hlFrFCOmyr-69" value="集群" style="rounded=1;whiteSpace=wrap;html=1;rotation=90;fillColor=#f8cecc;strokeColor=#b85450;" parent="1" vertex="1">
          <mxGeometry x="739" y="610" width="120" height="60" as="geometry" />
        </mxCell>
        <mxCell id="0gWfFFMA--hlFrFCOmyr-71" value="Nginx 负载/反向代理" style="rounded=1;whiteSpace=wrap;html=1;strokeColor=#6C8EBF;fillColor=#DAE8FC;" parent="1" vertex="1">
          <mxGeometry x="119" y="350" width="630" height="50" as="geometry" />
        </mxCell>
        <mxCell id="0gWfFFMA--hlFrFCOmyr-72" value="容灾中心" style="ellipse;shape=cloud;whiteSpace=wrap;html=1;strokeColor=#6C8EBF;fillColor=#157DB0;fontColor=#FFFFFF;" parent="1" vertex="1">
          <mxGeometry x="159" y="755" width="120" height="80" as="geometry" />
        </mxCell>
        <mxCell id="0gWfFFMA--hlFrFCOmyr-73" value="读写分离" style="shape=document;whiteSpace=wrap;html=1;boundedLbl=1;strokeColor=#6C8EBF;fillColor=#157DB0;fontColor=#FFFFFF;" parent="1" vertex="1">
          <mxGeometry x="549" y="755" width="120" height="80" as="geometry" />
        </mxCell>
      </root>
    </mxGraphModel>
  </diagram>
  <diagram id="aiwn45gSn6pNFZbFEN47" name="部署图">
    <mxGraphModel dx="1079" dy="1343" grid="1" gridSize="10" guides="1" tooltips="1" connect="1" arrows="1" fold="1" page="1" pageScale="1" pageWidth="827" pageHeight="1169" math="0" shadow="0">
      <root>
        <mxCell id="A_4Rl2Eav3FT_oc6kxmv-0" />
        <mxCell id="A_4Rl2Eav3FT_oc6kxmv-1" parent="A_4Rl2Eav3FT_oc6kxmv-0" />
      </root>
    </mxGraphModel>
  </diagram>
  <diagram id="zNMXUThXvbwhsrksS0kp" name="业务流程-单项工程">
    <mxGraphModel dx="1079" dy="1343" grid="1" gridSize="10" guides="1" tooltips="1" connect="1" arrows="1" fold="1" page="1" pageScale="1" pageWidth="827" pageHeight="1169" math="0" shadow="0">
      <root>
        <mxCell id="LJfPcS-ez_DjOu3xGLK--0" />
        <mxCell id="LJfPcS-ez_DjOu3xGLK--1" parent="LJfPcS-ez_DjOu3xGLK--0" />
        <mxCell id="JliwPDDuO2BIqAKhEFZt-0" value="" style="whiteSpace=wrap;html=1;fillColor=#d5e8d4;strokeColor=#82b366;" vertex="1" parent="LJfPcS-ez_DjOu3xGLK--1">
          <mxGeometry x="693" y="177" width="392" height="355" as="geometry" />
        </mxCell>
        <mxCell id="JliwPDDuO2BIqAKhEFZt-1" style="edgeStyle=orthogonalEdgeStyle;rounded=0;html=1;jettySize=auto;orthogonalLoop=1;" edge="1" parent="LJfPcS-ez_DjOu3xGLK--1" source="JliwPDDuO2BIqAKhEFZt-2">
          <mxGeometry relative="1" as="geometry">
            <mxPoint x="679" y="539" as="targetPoint" />
          </mxGeometry>
        </mxCell>
        <mxCell id="JliwPDDuO2BIqAKhEFZt-2" value="" style="whiteSpace=wrap;html=1;fillColor=#f5f5f5;strokeColor=#666666;" vertex="1" parent="LJfPcS-ez_DjOu3xGLK--1">
          <mxGeometry x="315" y="176" width="338" height="356" as="geometry" />
        </mxCell>
        <mxCell id="JliwPDDuO2BIqAKhEFZt-3" value="&lt;div&gt;查询工序算法配置列表&lt;br&gt;&lt;/div&gt;" style="shape=note;whiteSpace=wrap;html=1;verticalAlign=top;" vertex="1" parent="LJfPcS-ez_DjOu3xGLK--1">
          <mxGeometry x="741" y="294" width="268" height="35" as="geometry" />
        </mxCell>
        <mxCell id="JliwPDDuO2BIqAKhEFZt-4" value="Service 数据服务" style="text;html=1;strokeColor=none;fillColor=none;align=center;verticalAlign=middle;whiteSpace=wrap;" vertex="1" parent="LJfPcS-ez_DjOu3xGLK--1">
          <mxGeometry x="798" y="189" width="205" height="20" as="geometry" />
        </mxCell>
        <mxCell id="JliwPDDuO2BIqAKhEFZt-5" value="" style="whiteSpace=wrap;html=1;fontSize=12;fontStyle=1;fontColor=#FF3333;fontFamily=Verdana;" vertex="1" parent="LJfPcS-ez_DjOu3xGLK--1">
          <mxGeometry x="315" y="546" width="770" height="140" as="geometry" />
        </mxCell>
        <mxCell id="JliwPDDuO2BIqAKhEFZt-6" style="edgeStyle=orthogonalEdgeStyle;rounded=0;html=1;jettySize=auto;orthogonalLoop=1;entryX=0.5;entryY=0;" edge="1" parent="LJfPcS-ez_DjOu3xGLK--1" source="JliwPDDuO2BIqAKhEFZt-8" target="JliwPDDuO2BIqAKhEFZt-23">
          <mxGeometry relative="1" as="geometry">
            <Array as="points">
              <mxPoint x="157" y="292" />
              <mxPoint x="160" y="292" />
            </Array>
          </mxGeometry>
        </mxCell>
        <mxCell id="JliwPDDuO2BIqAKhEFZt-7" style="edgeStyle=orthogonalEdgeStyle;rounded=0;html=1;jettySize=auto;orthogonalLoop=1;" edge="1" parent="LJfPcS-ez_DjOu3xGLK--1" source="JliwPDDuO2BIqAKhEFZt-8">
          <mxGeometry relative="1" as="geometry">
            <mxPoint x="308" y="245" as="targetPoint" />
          </mxGeometry>
        </mxCell>
        <mxCell id="JliwPDDuO2BIqAKhEFZt-8" value="&lt;div&gt;CostCalcBiz.java&lt;br&gt;&lt;/div&gt;费用计算主程序" style="rounded=1;whiteSpace=wrap;html=1;fontFamily=Verdana;fontSize=9;fontColor=#000000;fillColor=#fff2cc;strokeColor=#d6b656;" vertex="1" parent="LJfPcS-ez_DjOu3xGLK--1">
          <mxGeometry x="97" y="189" width="120" height="56" as="geometry" />
        </mxCell>
        <mxCell id="JliwPDDuO2BIqAKhEFZt-9" value="&lt;span&gt;钻井&lt;/span&gt;" style="rounded=1;whiteSpace=wrap;html=1;fontFamily=Verdana;fontSize=9;fontColor=#000000;fillColor=#dae8fc;strokeColor=#6c8ebf;" vertex="1" parent="LJfPcS-ez_DjOu3xGLK--1">
          <mxGeometry x="147" y="7" width="106" height="42" as="geometry" />
        </mxCell>
        <mxCell id="JliwPDDuO2BIqAKhEFZt-10" value="&lt;span&gt;酸化压裂&lt;/span&gt;" style="rounded=1;whiteSpace=wrap;html=1;fontFamily=Verdana;fontSize=9;fontColor=#000000;fillColor=#dae8fc;strokeColor=#6c8ebf;" vertex="1" parent="LJfPcS-ez_DjOu3xGLK--1">
          <mxGeometry x="616" y="7" width="106" height="42" as="geometry" />
        </mxCell>
        <mxCell id="JliwPDDuO2BIqAKhEFZt-11" value="&lt;span&gt;修井&lt;/span&gt;" style="rounded=1;whiteSpace=wrap;html=1;fontFamily=Verdana;fontSize=9;fontColor=#000000;fillColor=#dae8fc;strokeColor=#6c8ebf;" vertex="1" parent="LJfPcS-ez_DjOu3xGLK--1">
          <mxGeometry x="465" y="7" width="106" height="42" as="geometry" />
        </mxCell>
        <mxCell id="JliwPDDuO2BIqAKhEFZt-12" value="&lt;span&gt;录井&lt;/span&gt;" style="rounded=1;whiteSpace=wrap;html=1;fontFamily=Verdana;fontSize=9;fontColor=#000000;fillColor=#dae8fc;strokeColor=#6c8ebf;" vertex="1" parent="LJfPcS-ez_DjOu3xGLK--1">
          <mxGeometry x="301" y="7" width="106" height="42" as="geometry" />
        </mxCell>
        <mxCell id="JliwPDDuO2BIqAKhEFZt-13" style="edgeStyle=orthogonalEdgeStyle;rounded=0;html=1;entryX=-0.007;entryY=0.394;entryPerimeter=0;jettySize=auto;orthogonalLoop=1;fontFamily=Verdana;fontSize=9;fontColor=#000000;" edge="1" parent="LJfPcS-ez_DjOu3xGLK--1" source="JliwPDDuO2BIqAKhEFZt-14" target="JliwPDDuO2BIqAKhEFZt-0">
          <mxGeometry relative="1" as="geometry" />
        </mxCell>
        <mxCell id="JliwPDDuO2BIqAKhEFZt-14" value="DataStorage.java&lt;div&gt;费用计算相关数据存储&lt;/div&gt;" style="rounded=1;whiteSpace=wrap;html=1;fontFamily=Verdana;fontSize=9;fontColor=#000000;fillColor=#fff2cc;strokeColor=#d6b656;labelPosition=center;verticalLabelPosition=top;align=center;verticalAlign=bottom;" vertex="1" parent="LJfPcS-ez_DjOu3xGLK--1">
          <mxGeometry x="337" y="258" width="283" height="203" as="geometry" />
        </mxCell>
        <mxCell id="JliwPDDuO2BIqAKhEFZt-15" value="&lt;div&gt;定额表实体&lt;/div&gt;StandardTable&lt;span&gt;Entity&lt;/span&gt;.java" style="rounded=1;whiteSpace=wrap;html=1;fontFamily=Verdana;fontSize=9;fontColor=#000000;fillColor=#eeeeee;strokeColor=#36393d;shadow=0;" vertex="1" parent="LJfPcS-ez_DjOu3xGLK--1">
          <mxGeometry x="395" y="278" width="168" height="60" as="geometry" />
        </mxCell>
        <mxCell id="JliwPDDuO2BIqAKhEFZt-16" value="&lt;div&gt;公式配置实体&lt;/div&gt;FormulaConfigEntity.java" style="rounded=1;whiteSpace=wrap;html=1;fontFamily=Verdana;fontSize=9;fontColor=#000000;fillColor=#eeeeee;strokeColor=#36393d;" vertex="1" parent="LJfPcS-ez_DjOu3xGLK--1">
          <mxGeometry x="394" y="362" width="168" height="60" as="geometry" />
        </mxCell>
        <mxCell id="JliwPDDuO2BIqAKhEFZt-17" value="CostCalcCache.java&lt;div&gt;缓存数据&lt;/div&gt;" style="rounded=1;whiteSpace=wrap;html=1;shadow=0;fontFamily=Verdana;fontSize=9;fontColor=#000000;labelPosition=center;verticalLabelPosition=top;align=center;verticalAlign=bottom;fillColor=#fff2cc;strokeColor=#d6b656;" vertex="1" parent="LJfPcS-ez_DjOu3xGLK--1">
          <mxGeometry x="585" y="587" width="284" height="58" as="geometry" />
        </mxCell>
        <mxCell id="JliwPDDuO2BIqAKhEFZt-18" value="定额表" style="rounded=1;whiteSpace=wrap;html=1;shadow=0;fontFamily=Verdana;fontSize=9;fontColor=#000000;" vertex="1" parent="LJfPcS-ez_DjOu3xGLK--1">
          <mxGeometry x="609" y="595" width="98" height="44" as="geometry" />
        </mxCell>
        <mxCell id="JliwPDDuO2BIqAKhEFZt-19" value="表名对应表" style="rounded=1;whiteSpace=wrap;html=1;shadow=0;fontFamily=Verdana;fontSize=9;fontColor=#000000;" vertex="1" parent="LJfPcS-ez_DjOu3xGLK--1">
          <mxGeometry x="731" y="595" width="98" height="44" as="geometry" />
        </mxCell>
        <mxCell id="JliwPDDuO2BIqAKhEFZt-20" style="edgeStyle=orthogonalEdgeStyle;rounded=0;html=1;entryX=0;entryY=0.75;jettySize=auto;orthogonalLoop=1;" edge="1" parent="LJfPcS-ez_DjOu3xGLK--1" source="JliwPDDuO2BIqAKhEFZt-23" target="JliwPDDuO2BIqAKhEFZt-14">
          <mxGeometry relative="1" as="geometry" />
        </mxCell>
        <mxCell id="JliwPDDuO2BIqAKhEFZt-21" style="edgeStyle=orthogonalEdgeStyle;rounded=0;html=1;exitX=1;exitY=0.5;entryX=0;entryY=0.5;jettySize=auto;orthogonalLoop=1;" edge="1" parent="LJfPcS-ez_DjOu3xGLK--1" source="JliwPDDuO2BIqAKhEFZt-23" target="JliwPDDuO2BIqAKhEFZt-5">
          <mxGeometry relative="1" as="geometry" />
        </mxCell>
        <mxCell id="JliwPDDuO2BIqAKhEFZt-22" style="edgeStyle=orthogonalEdgeStyle;rounded=0;html=1;jettySize=auto;orthogonalLoop=1;" edge="1" parent="LJfPcS-ez_DjOu3xGLK--1" source="JliwPDDuO2BIqAKhEFZt-23" target="JliwPDDuO2BIqAKhEFZt-31">
          <mxGeometry relative="1" as="geometry" />
        </mxCell>
        <mxCell id="JliwPDDuO2BIqAKhEFZt-23" value="AbstractCalc.java&lt;div&gt;抽象计算&lt;/div&gt;" style="rounded=1;whiteSpace=wrap;html=1;shadow=0;fontFamily=Verdana;fontSize=9;fontColor=#000000;labelPosition=center;verticalLabelPosition=top;align=center;verticalAlign=bottom;" vertex="1" parent="LJfPcS-ez_DjOu3xGLK--1">
          <mxGeometry x="62" y="338" width="196" height="246" as="geometry" />
        </mxCell>
        <mxCell id="JliwPDDuO2BIqAKhEFZt-24" value="CalcDefaultCJ 1" style="rounded=1;whiteSpace=wrap;html=1;fontFamily=Verdana;fontSize=9;fontColor=#000000;fillColor=#fff2cc;strokeColor=#d6b656;" vertex="1" parent="LJfPcS-ez_DjOu3xGLK--1">
          <mxGeometry x="100" y="350" width="120" height="42" as="geometry" />
        </mxCell>
        <mxCell id="JliwPDDuO2BIqAKhEFZt-25" value="CalcHelper 计算辅助" style="rounded=1;whiteSpace=wrap;html=1;fontFamily=Verdana;fontSize=9;fontColor=#000000;fillColor=#fff2cc;strokeColor=#d6b656;" vertex="1" parent="LJfPcS-ez_DjOu3xGLK--1">
          <mxGeometry x="322" y="589" width="243" height="60" as="geometry" />
        </mxCell>
        <mxCell id="JliwPDDuO2BIqAKhEFZt-26" value="计算支撑" style="text;html=1;strokeColor=none;fillColor=none;align=center;verticalAlign=middle;whiteSpace=wrap;" vertex="1" parent="LJfPcS-ez_DjOu3xGLK--1">
          <mxGeometry x="674" y="659" width="107" height="20" as="geometry" />
        </mxCell>
        <mxCell id="JliwPDDuO2BIqAKhEFZt-27" value="CalcDefaultCJ 2" style="rounded=1;whiteSpace=wrap;html=1;fontFamily=Verdana;fontSize=9;fontColor=#000000;fillColor=#fff2cc;strokeColor=#d6b656;" vertex="1" parent="LJfPcS-ez_DjOu3xGLK--1">
          <mxGeometry x="100" y="404" width="120" height="37" as="geometry" />
        </mxCell>
        <mxCell id="JliwPDDuO2BIqAKhEFZt-28" value="CalcDefaultZJ 1" style="rounded=1;whiteSpace=wrap;html=1;fontFamily=Verdana;fontSize=9;fontColor=#000000;fillColor=#fff2cc;strokeColor=#d6b656;" vertex="1" parent="LJfPcS-ez_DjOu3xGLK--1">
          <mxGeometry x="100" y="461" width="120" height="42" as="geometry" />
        </mxCell>
        <mxCell id="JliwPDDuO2BIqAKhEFZt-29" value="CalcDefaultZJ 1" style="rounded=1;whiteSpace=wrap;html=1;fontFamily=Verdana;fontSize=9;fontColor=#000000;fillColor=#fff2cc;strokeColor=#d6b656;" vertex="1" parent="LJfPcS-ez_DjOu3xGLK--1">
          <mxGeometry x="97" y="518" width="120" height="42" as="geometry" />
        </mxCell>
        <mxCell id="JliwPDDuO2BIqAKhEFZt-30" value="Fel 表达式引擎。&amp;nbsp;" style="rounded=1;whiteSpace=wrap;html=1;fontFamily=Verdana;fontSize=9;fontColor=#000000;fillColor=#fff2cc;strokeColor=#d6b656;" vertex="1" parent="LJfPcS-ez_DjOu3xGLK--1">
          <mxGeometry x="896" y="584" width="180" height="60" as="geometry" />
        </mxCell>
        <mxCell id="JliwPDDuO2BIqAKhEFZt-31" value="结果" style="rounded=1;whiteSpace=wrap;html=1;" vertex="1" parent="LJfPcS-ez_DjOu3xGLK--1">
          <mxGeometry x="97" y="686" width="120" height="60" as="geometry" />
        </mxCell>
        <mxCell id="JliwPDDuO2BIqAKhEFZt-32" value="&lt;div&gt;保存计算结果&lt;br&gt;&lt;/div&gt;" style="shape=note;whiteSpace=wrap;html=1;verticalAlign=top;" vertex="1" parent="LJfPcS-ez_DjOu3xGLK--1">
          <mxGeometry x="741" y="392" width="268" height="35" as="geometry" />
        </mxCell>
        <mxCell id="JliwPDDuO2BIqAKhEFZt-33" value="&lt;div&gt;查询工序树&lt;br&gt;&lt;/div&gt;" style="shape=note;whiteSpace=wrap;html=1;verticalAlign=top;" vertex="1" parent="LJfPcS-ez_DjOu3xGLK--1">
          <mxGeometry x="741" y="345" width="268" height="35" as="geometry" />
        </mxCell>
      </root>
    </mxGraphModel>
  </diagram>
</mxfile>
